<?xml version="1.0" encoding="utf-8"?>
<!-- Generator: Adobe Illustrator 27.9.0, SVG Export Plug-In . SVG Version: 6.00 Build 0)  -->
<svg version="1.1" id="Layer_1" xmlns="http://www.w3.org/2000/svg" xmlns:xlink="http://www.w3.org/1999/xlink" x="0px" y="0px"
	 viewBox="0 0 1000 1000" style="enable-background:new 0 0 1000 1000;" xml:space="preserve">
<path d="M900,890c-3.74,7.11-9.51,9.22-17.55,9.17c-50.33-0.34-100.66-0.17-150.99-0.17c-13.85,0-17.53-3.64-17.53-17.34
	c0-80.83,0.19-161.65-0.12-242.48c-0.09-23.95-0.03-48.01-4.8-71.7c-2.32-11.51-5.88-22.56-12.57-32.35
	c-9.71-14.21-23.94-20.89-40.44-22.87c-13.11-1.57-26.3-1.04-39.24,2.03c-23.29,5.52-38.54,20.04-46.72,42.29
	c-8.05,21.91-10.05,44.76-10.07,67.83c-0.07,86.49,0.03,172.98,0.04,259.48c0,10.55-4.67,15.1-15.28,15.1c-52,0-103.99,0-155.99,0
	c-9.92,0-14.74-4.71-14.74-14.62c-0.02-170.82-0.02-341.64,0-512.46c0-9.59,5.14-14.73,14.89-14.74c50-0.04,99.99-0.05,149.99,0
	c9.42,0.01,14.57,5.04,14.74,14.49c0.19,10.13,0.04,20.28,0.04,31.33c1.61-1.35,2.62-2.07,3.47-2.93
	c34.02-34.38,75.7-51.9,123.49-54.98c36.06-2.32,71.61,1.33,105.63,14.35c45.78,17.52,75.65,50.69,92.77,96.02
	c11.82,31.31,16.73,64,18.93,97.17c0.94,14.1,1.38,28.24,2.04,42.37C900,693.33,900,791.67,900,890z"/>
<path d="M100,195c2.66-9.57,4.43-19.51,8.14-28.66c17.32-42.7,61.81-69.37,107.3-64.94c47.1,4.58,85.26,39.05,94.3,85.16
	c11.62,59.34-28.95,116.39-88.95,125.09c-58.17,8.44-112.25-32.78-119.86-91.32c-0.15-1.13-0.6-2.22-0.91-3.33
	C100,209.67,100,202.33,100,195z"/>
<path d="M299.07,628.52c0,84.32,0,168.64,0,252.96c0,1.83,0.07,3.67-0.06,5.5c-0.5,7.08-5.66,12-12.77,12.01
	c-53.49,0.03-106.98,0.03-160.47,0c-7.45,0-12.45-4.86-12.91-12.35c-0.1-1.66-0.06-3.33-0.06-5c0-169.14,0-338.28,0-507.42
	c0-12.73,4.32-17.06,17.05-17.06c50.82,0,101.65,0,152.47,0c12.33,0,16.75,4.46,16.75,16.9
	C299.07,458.88,299.07,543.7,299.07,628.52z"/>
</svg>
