<?xml version="1.0" encoding="utf-8"?>
<!-- Generator: Adobe Illustrator 27.9.0, SVG Export Plug-In . SVG Version: 6.00 Build 0)  -->
<svg version="1.1" id="Parklink" xmlns="http://www.w3.org/2000/svg" xmlns:xlink="http://www.w3.org/1999/xlink" x="0px" y="0px"
	 viewBox="0 0 500 500" style="enable-background:new 0 0 500 500;" xml:space="preserve">
<style type="text/css">
	.st0{fill:#12354C;}
	.st1{fill:#FDFEFE;}
	.st2{fill:#6AD621;}
</style>
<path class="st0" d="M248.4,30.72c15.49-0.14,28.65,1.5,41.79,3.96c16.53,3.09,32.33,8.49,47.83,14.75
	c16.09,6.5,30.79,15.56,44.87,25.72c17.04,12.3,31.06,27.6,43.98,43.93c9.38,11.85,17.82,24.49,24.15,38.21
	c5.9,12.77,11.07,25.92,14.67,39.64c1.98,7.54,3.7,15.11,5.09,22.75c1.13,6.21,1.85,12.56,2.09,18.87
	c0.54,14.37,0.35,28.72-1.37,43.07c-1.44,11.96-3.53,23.74-7.02,35.25c-5.54,18.25-13.08,35.58-23.27,51.8
	c-10.04,15.98-21.44,30.8-34.99,43.89c-19.68,19.02-41.76,34.54-67.46,44.46c-12.57,4.85-25.35,9.14-38.54,11.98
	c-6.65,1.43-13.42,2.28-20.15,3.3c-11.61,1.78-23.28,1.76-34.97,1.87c-11.19,0.1-22.19-1.26-33.13-3.37
	c-25.38-4.9-49.58-13.24-72.06-26.02c-13.76-7.83-26.83-16.8-38.53-27.6c-15.72-14.51-29.3-30.82-40.85-48.81
	c-11.07-17.25-19.67-35.67-25.14-55.45c-2.4-8.66-4.07-17.48-5.37-26.4c-1.47-10.07-2.39-20.16-2.45-30.31
	c-0.05-8.03,1.23-16.06,1.33-24.06c0.12-9.07,2.43-17.62,4.15-26.33c0.97-4.92,2.39-9.78,3.99-14.54
	c2.61-7.77,5.39-15.49,8.37-23.12c3.25-8.34,7.9-16,12.04-23.9c7.9-15.1,18.9-27.88,29.68-40.89
	c10.54-12.72,23.41-22.59,36.77-32.08c15.07-10.7,31.25-19.25,48.34-26.02c13.2-5.24,26.89-8.95,40.92-11.53
	C225.56,31.44,238.01,30.96,248.4,30.72z M135.55,348.97c-1.17,2.46,0.52,5.23-0.55,7.5c-2.18-2.04-4.57-3.8-6.37-6.04
	c-11.89-14.85-21.39-31.07-27.76-49.07c-1.78-5.05-3.57-10.15-7.43-14.18c-6.61-6.89-16.57-8.7-25.03-4.44
	c-8.69,4.38-14.38,15.3-12.55,24.35c1.41,6.96,3.66,13.67,6.54,20.18c4.14,9.36,8.43,18.66,13.98,27.26
	c9.17,14.22,19.55,27.45,32.01,39.04c6.3,5.86,12.71,11.55,19.61,16.67c14.41,10.67,29.93,19.44,46.51,26.27
	c5.84,2.4,11.69,4.83,17.99,5.83c0.61,0.2,1.22,0.51,1.84,0.57c12.16,1.14,23.61-6.09,25.3-19.53c0.54-4.29,0.36-8.6,0.36-12.91
	c0.02-23,0.07-46,0.05-69.01c0-2.24,0.63-3.07,3.08-3.05c19.67,0.14,39.34-0.07,59.01,0.22c16.86,0.24,32.6-3.36,46.77-12.63
	c26.08-17.05,40.89-41.34,45.35-72.03c1.96-13.47,1.17-26.82-1.81-40.17c-3.45-15.42-10.55-28.94-20.55-40.9
	c-9.95-11.89-21.79-21.47-35.9-28.38c-10.63-5.21-21.67-7.97-33.32-8.15c-18.2-0.29-36.41-0.12-54.62-0.18
	c-7.42-0.02-14.75,0.53-21.93,2.63c-12.48,3.63-23.93,9.35-34.31,17.09c-7.65,5.7-13.59,13.09-19.17,20.77
	c-12.23,16.86-17.44,35.78-17.32,56.49c0.16,27.63-0.08,55.27-0.03,82.91C135.33,327.04,134.85,338.01,135.55,348.97z
	 M272.68,448.08c6.16,0.16,12.86-1.19,19.53-2.44c9.55-1.8,18.99-4.07,28.23-7.21c11.43-3.89,22.42-8.67,32.9-14.64
	c9.24-5.27,17.6-11.8,26.05-18.24c12.18-9.27,22.31-20.48,31.97-32.21c9.18-11.15,16.13-23.64,22.59-36.47
	c3.64-7.24,6.98-14.58,9.33-22.35c1.67-5.52,1.93-11.05,0.69-16.79c-3.08-14.3-18.81-20.39-31.02-15.01
	c-5.87,2.58-8.76,7.79-11.05,13.33c-2.73,6.6-4.99,13.39-7.82,19.94c-8.06,18.61-20.09,34.3-35.15,47.85
	c-13.36,12.02-28.4,21.2-44.91,28.12c-14.02,5.88-28.79,8.86-43.68,11.37c-6.43,1.09-12.46,3.05-16.85,8.33
	c-4.67,5.63-7.06,11.98-5.06,19.2C251.45,441.76,260.5,448.19,272.68,448.08z M447.13,230.23c-0.42-9.45-1.38-18.85-3.74-28.09
	c-3.23-12.61-7.13-25.01-12.95-36.66c-5.34-10.69-11.15-21.1-18.52-30.68c-5.05-6.56-10.14-13.06-15.69-19.16
	c-9-9.88-19.23-18.38-30.3-25.88c-10.38-7.03-21.2-13.3-33.05-17.49c-8.34-2.95-16.41-2.11-23.29,3.91
	c-5.31,4.64-8.51,10.54-7.96,17.78c0.55,7.34,4.49,12.67,10.81,16.36c8.54,4.99,17.4,9.41,25.65,14.94
	c11.62,7.78,22.14,16.79,30.94,27.63c11.22,13.81,20.48,28.82,26.22,45.8c3.26,9.63,5.47,19.47,6.31,29.63
	c0.34,4.11-0.19,8.41,1.18,12.32c3.27,9.28,9.07,15.72,19.71,16.44c6.19,0.41,11.5-1.35,16.1-5.36
	C445.04,246.05,446.94,238.5,447.13,230.23z M197.22,93.18c0.23-7.53-3.65-13.27-9.58-17.78c-5.76-4.38-12.37-4.98-19.22-3.44
	c-8.27,1.86-15.57,6.06-22.78,10.24c-14.02,8.15-26.75,18-38.06,29.7c-11.23,11.61-20.96,24.32-29.31,38.13
	c-8.57,14.18-15.08,29.26-19.61,45.18c-3.33,11.67-5.42,23.56-4.99,35.75c0.35,9.84,3.67,18.11,12.78,23.36
	c14.63,8.41,28.94-1.33,31.69-14.51c1.3-6.22,0.59-12.62,1.39-18.91c1.79-13.99,6.08-27.16,12.61-39.63
	c6.2-11.83,13.55-22.83,22.71-32.65c9.3-9.96,19.31-19.02,30.95-26.14c6.85-4.19,13.98-7.92,20.77-12.19
	C192.67,106.43,197.57,101.55,197.22,93.18z M250,52.42c-15.32-0.37-30.41,14.15-30.02,31.13c0.38,16.6,13.8,28.09,29.38,28.47
	c16.66,0.41,30.04-13.28,30.21-30.1C279.74,65.96,266.24,52.26,250,52.42z"/>
<path class="st1" d="M135.55,348.97c-0.69-10.96-0.22-21.93-0.24-32.89c-0.05-27.64,0.19-55.27,0.03-82.91
	c-0.12-20.7,5.09-39.63,17.32-56.49c5.58-7.69,11.52-15.08,19.17-20.77c10.38-7.74,21.83-13.46,34.31-17.09
	c7.18-2.09,14.51-2.65,21.93-2.63c18.21,0.05,36.42-0.11,54.62,0.18c11.65,0.19,22.7,2.95,33.32,8.15
	c14.1,6.91,25.95,16.49,35.9,28.38c10,11.96,17.1,25.47,20.55,40.9c2.98,13.34,3.77,26.69,1.81,40.17
	c-4.46,30.68-19.26,54.97-45.35,72.03c-14.17,9.26-29.91,12.87-46.77,12.63c-19.67-0.28-39.34-0.07-59.01-0.22
	c-2.46-0.02-3.08,0.81-3.08,3.05c0.02,23-0.03,46-0.05,69.01c0,4.31,0.18,8.62-0.36,12.91c-1.69,13.43-13.14,20.67-25.3,19.53
	c-0.63-0.06-1.23-0.38-1.84-0.57c0.08-1.53,0.25-3.06,0.24-4.6c-0.06-13.52-0.15-27.05-0.24-40.57c-0.01-1.04-0.15-2.09-0.23-3.13
	c0.03-0.48,0.08-0.97,0.08-1.45c-0.12-55.43-0.26-110.86-0.34-166.29c-0.01-5.28,0.41-10.53,2.32-15.58
	c3.73-9.83,12.27-17.97,24.19-18.03c16.42-0.09,32.83-0.04,49.25-0.13c7.72-0.04,14.88,1.71,21.68,5.47
	c19.05,10.56,28.17,32.1,21.43,52.3c-5.64,16.91-17.18,27.96-35.12,30.53c-11.32,1.63-22.87,0.62-34.3-0.16
	c-3.27-0.22-5.77-2.17-7.58-4.67c-3.3-4.57-4.42-9.54-1.55-14.84c2.84-5.26,7.11-7.98,13.22-7.87c7.47,0.14,14.97,0.35,22.43-0.01
	c6.49-0.31,11.91-3.02,15.01-9.21c3.13-6.26,1.51-11.86-2.54-16.98c-3.81-4.83-9.21-6.03-15.04-6.03c-13.65,0-27.31-0.04-40.96-0.06
	c-4.84-0.01-4.28-0.6-4.28,4.23c0.02,27.63,0.03,55.27,0.01,82.9c0,1.74,0.05,2.81,2.4,2.8c22.03-0.11,44.05-0.15,66.08-0.07
	c5.82,0.02,11.26-1.43,16.58-3.43c13.13-4.95,22.5-14.39,30.11-25.79c7.61-11.41,11.17-24.09,12.11-37.74
	c1.26-18.41-4.06-34.78-14.38-49.75c-4.35-6.31-9.74-11.63-15.86-16.29c-10.23-7.79-21.17-13.52-34.46-13.47
	c-18.29,0.06-36.57,0.02-54.86,0c-4.56,0-9.1,0.11-13.57,1.12c-13.36,3.04-24.41,10.02-33.56,20.03
	c-10.9,11.92-17.43,25.87-17.37,42.21c0.19,49.58-0.49,99.16,0.33,148.73c-0.45-0.1-0.95,0.22-1.34-0.3
	c-1.82-2.43-4.45-3.97-6.69-5.94c-6.47-5.68-12.83-11.43-17.59-18.73C137.51,350.56,137.17,349.04,135.55,348.97z"/>
<path class="st2" d="M272.68,448.08c-12.18,0.11-21.23-6.32-24.25-17.23c-2-7.22,0.39-13.57,5.06-19.2
	c4.39-5.29,10.42-7.25,16.85-8.33c14.9-2.51,29.66-5.5,43.68-11.37c16.51-6.92,31.55-16.09,44.91-28.12
	c15.06-13.55,27.08-29.25,35.15-47.85c2.84-6.55,5.1-13.34,7.82-19.94c2.29-5.54,5.19-10.75,11.05-13.33
	c12.21-5.38,27.94,0.72,31.02,15.01c1.24,5.74,0.97,11.27-0.69,16.79c-2.34,7.76-5.68,15.11-9.33,22.35
	c-6.46,12.83-13.41,25.33-22.59,36.47c-9.66,11.73-19.79,22.94-31.97,32.21c-8.45,6.43-16.81,12.97-26.05,18.24
	c-10.47,5.97-21.47,10.75-32.9,14.64c-9.24,3.15-18.68,5.42-28.23,7.21C285.54,446.89,278.84,448.24,272.68,448.08z"/>
<path class="st2" d="M447.13,230.23c-0.19,8.27-2.09,15.82-8.59,21.49c-4.6,4.01-9.91,5.78-16.1,5.36
	c-10.64-0.71-16.44-7.15-19.71-16.44c-1.38-3.91-0.84-8.2-1.18-12.32c-0.84-10.16-3.06-20-6.31-29.63c-5.74-16.98-15-32-26.22-45.8
	c-8.8-10.83-19.31-19.84-30.94-27.63c-8.25-5.53-17.11-9.95-25.65-14.94c-6.32-3.7-10.25-9.03-10.81-16.36
	c-0.55-7.24,2.66-13.14,7.96-17.78c6.88-6.02,14.95-6.87,23.29-3.91c11.85,4.19,22.66,10.46,33.05,17.49
	c11.07,7.49,21.3,16,30.3,25.88c5.55,6.1,10.64,12.61,15.69,19.16c7.37,9.58,13.19,19.98,18.52,30.68
	c5.81,11.65,9.72,24.05,12.95,36.66C445.75,211.38,446.7,220.79,447.13,230.23z"/>
<path class="st2" d="M197.22,93.18c0.34,8.37-4.56,13.25-10.65,17.09c-6.79,4.28-13.92,8.01-20.77,12.19
	c-11.64,7.12-21.65,16.18-30.95,26.14c-9.16,9.82-16.51,20.82-22.71,32.65c-6.54,12.47-10.83,25.64-12.61,39.63
	c-0.8,6.28-0.1,12.69-1.39,18.91c-2.75,13.18-17.06,22.93-31.69,14.51c-9.12-5.24-12.43-13.52-12.78-23.36
	c-0.44-12.18,1.66-24.08,4.99-35.75c4.54-15.92,11.05-30.99,19.61-45.18c8.34-13.81,18.08-26.52,29.31-38.13
	c11.31-11.7,24.04-21.55,38.06-29.7c7.21-4.19,14.5-8.38,22.78-10.24c6.86-1.54,13.46-0.94,19.22,3.44
	C193.57,79.91,197.45,85.65,197.22,93.18z"/>
<path class="st2" d="M135.55,348.97c1.62,0.07,1.96,1.6,2.59,2.56c4.75,7.3,11.12,13.05,17.59,18.73c2.24,1.97,4.87,3.51,6.69,5.94
	c0.38,0.51,0.89,0.2,1.34,0.29c0.08,0.55,0.28,1.12,0.21,1.66c-0.32,2.42,0.75,3.79,2.88,4.96c6.54,3.59,13.11,7.16,20.15,9.64
	c1.62,0.57,3.17,2.47,5.29,1.27c0.08,1.04,0.22,2.09,0.23,3.13c0.1,13.52,0.18,27.05,0.24,40.57c0.01,1.53-0.16,3.06-0.24,4.6
	c-6.3-1-12.16-3.42-17.99-5.83c-16.58-6.83-32.1-15.6-46.51-26.27c-6.91-5.11-13.31-10.8-19.61-16.67
	c-12.47-11.59-22.84-24.82-32.01-39.04c-5.55-8.6-9.84-17.9-13.98-27.26c-2.88-6.51-5.13-13.21-6.54-20.18
	c-1.83-9.05,3.86-19.97,12.55-24.35c8.46-4.26,18.42-2.46,25.03,4.44c3.86,4.02,5.65,9.13,7.43,14.18
	c6.37,18.01,15.87,34.22,27.76,49.07c1.79,2.24,4.19,4,6.37,6.04C136.06,354.2,134.37,351.43,135.55,348.97z"/>
<path class="st2" d="M250,52.42c16.24-0.16,29.74,13.54,29.58,29.51c-0.17,16.82-13.55,30.51-30.21,30.1
	c-15.59-0.38-29-11.87-29.38-28.47C219.58,66.57,234.67,52.05,250,52.42z"/>
<path class="st0" d="M192.28,394.03c-2.12,1.21-3.67-0.7-5.29-1.27c-7.04-2.48-13.61-6.04-20.15-9.64c-2.12-1.17-3.2-2.53-2.88-4.96
	c0.07-0.54-0.13-1.11-0.21-1.66c-0.83-49.57-0.14-99.15-0.33-148.73c-0.06-16.34,6.47-30.28,17.37-42.21
	c9.15-10.01,20.2-17,33.56-20.03c4.47-1.02,9.01-1.13,13.57-1.12c18.29,0.02,36.57,0.06,54.86,0c13.29-0.04,24.23,5.68,34.46,13.47
	c6.12,4.66,11.51,9.98,15.86,16.29c10.32,14.97,15.64,31.34,14.38,49.75c-0.93,13.65-4.49,26.34-12.11,37.74
	c-7.61,11.4-16.98,20.84-30.11,25.79c-5.32,2-10.76,3.45-16.58,3.43c-22.03-0.08-44.05-0.04-66.08,0.07c-2.35,0.01-2.4-1.05-2.4-2.8
	c0.02-27.63,0.01-55.27-0.01-82.9c0-4.83-0.56-4.24,4.28-4.23c13.65,0.02,27.31,0.06,40.96,0.06c5.83,0,11.23,1.2,15.04,6.03
	c4.04,5.12,5.67,10.72,2.54,16.98c-3.1,6.19-8.52,8.9-15.01,9.21c-7.46,0.36-14.95,0.14-22.43,0.01
	c-6.11-0.11-10.38,2.61-13.22,7.87c-2.87,5.3-1.75,10.27,1.55,14.84c1.81,2.51,4.31,4.45,7.58,4.67c11.43,0.78,22.98,1.78,34.3,0.16
	c17.94-2.58,29.47-13.62,35.12-30.53c6.74-20.21-2.38-41.74-21.43-52.3c-6.8-3.77-13.96-5.52-21.68-5.47
	c-16.42,0.09-32.83,0.04-49.25,0.13c-11.92,0.07-20.46,8.21-24.19,18.03c-1.91,5.05-2.33,10.3-2.32,15.58
	c0.08,55.43,0.22,110.86,0.34,166.29C192.36,393.06,192.3,393.54,192.28,394.03z"/>
</svg>
